<mxfile host="app.diagrams.net" modified="2024-03-20T10:01:57.288Z" agent="Mozilla/5.0 (Windows NT 10.0; Win64; x64) AppleWebKit/537.36 (KHTML, like Gecko) Chrome/122.0.0.0 Safari/537.36" etag="bdQYaek-CN9yLxIurZ7k" version="24.0.7" type="device">
  <diagram name="Page-1" id="XSlqy19oH9sHAqWsmCH4">
    <mxGraphModel dx="978" dy="352" grid="1" gridSize="10" guides="1" tooltips="1" connect="1" arrows="1" fold="1" page="0" pageScale="1" pageWidth="850" pageHeight="1100" math="0" shadow="0">
      <root>
        <mxCell id="0" />
        <mxCell id="1" parent="0" />
        <mxCell id="iHllJ_jnWDfSQ0VCiHgC-3" style="edgeStyle=none;curved=1;rounded=0;orthogonalLoop=1;jettySize=auto;html=1;exitX=0.5;exitY=1;exitDx=0;exitDy=0;fontSize=12;startSize=8;endSize=8;" parent="1" source="iHllJ_jnWDfSQ0VCiHgC-1" target="iHllJ_jnWDfSQ0VCiHgC-2" edge="1">
          <mxGeometry relative="1" as="geometry" />
        </mxCell>
        <mxCell id="iHllJ_jnWDfSQ0VCiHgC-1" value="" style="ellipse;whiteSpace=wrap;html=1;aspect=fixed;fillColor=#000000;" parent="1" vertex="1">
          <mxGeometry x="2" y="3" width="80" height="80" as="geometry" />
        </mxCell>
        <mxCell id="lzOMQDx3lBbBP2AzBaj6-1" style="edgeStyle=none;curved=1;rounded=0;orthogonalLoop=1;jettySize=auto;html=1;exitX=0.5;exitY=1;exitDx=0;exitDy=0;fontSize=12;startSize=8;endSize=8;" edge="1" parent="1" source="iHllJ_jnWDfSQ0VCiHgC-2">
          <mxGeometry relative="1" as="geometry">
            <mxPoint x="42" y="240" as="targetPoint" />
          </mxGeometry>
        </mxCell>
        <mxCell id="iHllJ_jnWDfSQ0VCiHgC-2" value="Līmenis ir atvērts" style="rounded=1;whiteSpace=wrap;html=1;" parent="1" vertex="1">
          <mxGeometry x="-18" y="118" width="120" height="60" as="geometry" />
        </mxCell>
        <mxCell id="iHllJ_jnWDfSQ0VCiHgC-4" value="" style="endArrow=none;html=1;rounded=0;fontSize=12;startSize=8;endSize=8;curved=1;strokeWidth=3;" parent="1" edge="1">
          <mxGeometry width="50" height="50" relative="1" as="geometry">
            <mxPoint x="-160" y="240" as="sourcePoint" />
            <mxPoint x="240" y="240" as="targetPoint" />
          </mxGeometry>
        </mxCell>
        <mxCell id="lzOMQDx3lBbBP2AzBaj6-5" style="edgeStyle=none;curved=1;rounded=0;orthogonalLoop=1;jettySize=auto;html=1;exitX=0.5;exitY=1;exitDx=0;exitDy=0;entryX=0.5;entryY=0;entryDx=0;entryDy=0;fontSize=12;startSize=8;endSize=8;" edge="1" parent="1" source="lzOMQDx3lBbBP2AzBaj6-2" target="lzOMQDx3lBbBP2AzBaj6-4">
          <mxGeometry relative="1" as="geometry" />
        </mxCell>
        <mxCell id="lzOMQDx3lBbBP2AzBaj6-2" value="visuālie effekti ir Izlasīti un kompilēti" style="rounded=1;whiteSpace=wrap;html=1;" vertex="1" parent="1">
          <mxGeometry x="170" y="290" width="120" height="60" as="geometry" />
        </mxCell>
        <mxCell id="lzOMQDx3lBbBP2AzBaj6-3" value="" style="endArrow=classic;html=1;rounded=0;fontSize=12;startSize=8;endSize=8;curved=1;entryX=0.5;entryY=0;entryDx=0;entryDy=0;" edge="1" parent="1" target="lzOMQDx3lBbBP2AzBaj6-2">
          <mxGeometry width="50" height="50" relative="1" as="geometry">
            <mxPoint x="230" y="240" as="sourcePoint" />
            <mxPoint x="130" y="300" as="targetPoint" />
          </mxGeometry>
        </mxCell>
        <mxCell id="lzOMQDx3lBbBP2AzBaj6-4" value="" style="rounded=1;whiteSpace=wrap;html=1;" vertex="1" parent="1">
          <mxGeometry x="170" y="390" width="120" height="60" as="geometry" />
        </mxCell>
      </root>
    </mxGraphModel>
  </diagram>
</mxfile>
